<mxfile host="app.diagrams.net" modified="2023-03-25T09:52:34.935Z" agent="5.0 (Macintosh; Intel Mac OS X 10_15_7) AppleWebKit/537.36 (KHTML, like Gecko) Chrome/111.0.0.0 Safari/537.36" etag="ijIg2UoGQ7V9GN1QB_nR" version="21.0.6" type="github">
  <diagram id="R2lEEEUBdFMjLlhIrx00" name="Page-1">
    <mxGraphModel dx="1784" dy="1585" grid="1" gridSize="10" guides="1" tooltips="1" connect="1" arrows="0" fold="1" page="1" pageScale="1" pageWidth="850" pageHeight="1100" math="0" shadow="0" extFonts="Permanent Marker^https://fonts.googleapis.com/css?family=Permanent+Marker">
      <root>
        <mxCell id="0" />
        <mxCell id="1" parent="0" />
        <mxCell id="X_ObQz0MvqeAvcVC8B-2-1" value="bank personal customers" style="rounded=0;whiteSpace=wrap;html=1;" parent="1" vertex="1">
          <mxGeometry x="367" y="238.75" width="117" height="40" as="geometry" />
        </mxCell>
        <mxCell id="X_ObQz0MvqeAvcVC8B-2-3" value="credit card customers" style="rounded=0;whiteSpace=wrap;html=1;" parent="1" vertex="1">
          <mxGeometry x="95" y="755" width="105" height="40" as="geometry" />
        </mxCell>
        <mxCell id="X_ObQz0MvqeAvcVC8B-2-4" value="BRN_CUST" style="rounded=0;whiteSpace=wrap;html=1;" parent="1" vertex="1">
          <mxGeometry x="685" y="625" width="105" height="40" as="geometry" />
        </mxCell>
        <mxCell id="X_ObQz0MvqeAvcVC8B-2-5" value="investment customers" style="rounded=0;whiteSpace=wrap;html=1;" parent="1" vertex="1">
          <mxGeometry x="373" y="778.75" width="105" height="45" as="geometry" />
        </mxCell>
        <mxCell id="X_ObQz0MvqeAvcVC8B-2-6" value="o" style="ellipse;whiteSpace=wrap;html=1;aspect=fixed;" parent="1" vertex="1">
          <mxGeometry x="410.5" y="628.75" width="30" height="30" as="geometry" />
        </mxCell>
        <mxCell id="X_ObQz0MvqeAvcVC8B-2-7" value="" style="endArrow=none;html=1;rounded=0;entryX=0;entryY=0.5;entryDx=0;entryDy=0;exitX=1;exitY=0.5;exitDx=0;exitDy=0;" parent="1" source="X_ObQz0MvqeAvcVC8B-2-35" target="X_ObQz0MvqeAvcVC8B-2-6" edge="1">
          <mxGeometry width="50" height="50" relative="1" as="geometry">
            <mxPoint x="270" y="542.5" as="sourcePoint" />
            <mxPoint x="480" y="542.5" as="targetPoint" />
          </mxGeometry>
        </mxCell>
        <mxCell id="X_ObQz0MvqeAvcVC8B-2-8" value="" style="endArrow=none;html=1;rounded=0;entryX=0.5;entryY=1;entryDx=0;entryDy=0;exitX=0.5;exitY=0;exitDx=0;exitDy=0;" parent="1" source="X_ObQz0MvqeAvcVC8B-2-3" target="X_ObQz0MvqeAvcVC8B-2-6" edge="1">
          <mxGeometry width="50" height="50" relative="1" as="geometry">
            <mxPoint x="445" y="710" as="sourcePoint" />
            <mxPoint x="495" y="660" as="targetPoint" />
          </mxGeometry>
        </mxCell>
        <mxCell id="X_ObQz0MvqeAvcVC8B-2-11" value="" style="shape=link;html=1;rounded=0;entryX=0.5;entryY=1;entryDx=0;entryDy=0;exitX=0.5;exitY=0;exitDx=0;exitDy=0;" parent="1" source="X_ObQz0MvqeAvcVC8B-2-6" target="X_ObQz0MvqeAvcVC8B-2-1" edge="1">
          <mxGeometry width="100" relative="1" as="geometry">
            <mxPoint x="410" y="400" as="sourcePoint" />
            <mxPoint x="510" y="400" as="targetPoint" />
          </mxGeometry>
        </mxCell>
        <mxCell id="X_ObQz0MvqeAvcVC8B-2-12" value="&lt;u&gt;ID&lt;/u&gt;" style="ellipse;whiteSpace=wrap;html=1;" parent="1" vertex="1">
          <mxGeometry x="467.75" y="110" width="50" height="30" as="geometry" />
        </mxCell>
        <mxCell id="X_ObQz0MvqeAvcVC8B-2-13" value="age" style="ellipse;whiteSpace=wrap;html=1;" parent="1" vertex="1">
          <mxGeometry x="545.25" y="110" width="50" height="30" as="geometry" />
        </mxCell>
        <mxCell id="X_ObQz0MvqeAvcVC8B-2-14" value="address" style="ellipse;whiteSpace=wrap;html=1;" parent="1" vertex="1">
          <mxGeometry x="618.25" y="110" width="72" height="30" as="geometry" />
        </mxCell>
        <mxCell id="X_ObQz0MvqeAvcVC8B-2-15" value="" style="endArrow=none;html=1;rounded=0;entryX=0.5;entryY=1;entryDx=0;entryDy=0;exitX=0.5;exitY=0;exitDx=0;exitDy=0;" parent="1" source="X_ObQz0MvqeAvcVC8B-2-1" target="X_ObQz0MvqeAvcVC8B-2-12" edge="1">
          <mxGeometry width="50" height="50" relative="1" as="geometry">
            <mxPoint x="430" y="420" as="sourcePoint" />
            <mxPoint x="480" y="370" as="targetPoint" />
          </mxGeometry>
        </mxCell>
        <mxCell id="X_ObQz0MvqeAvcVC8B-2-16" value="" style="endArrow=none;html=1;rounded=0;entryX=0.5;entryY=1;entryDx=0;entryDy=0;" parent="1" target="X_ObQz0MvqeAvcVC8B-2-13" edge="1">
          <mxGeometry width="50" height="50" relative="1" as="geometry">
            <mxPoint x="425" y="240" as="sourcePoint" />
            <mxPoint x="358" y="200" as="targetPoint" />
          </mxGeometry>
        </mxCell>
        <mxCell id="X_ObQz0MvqeAvcVC8B-2-17" value="" style="endArrow=none;html=1;rounded=0;entryX=0.5;entryY=1;entryDx=0;entryDy=0;exitX=0.5;exitY=0;exitDx=0;exitDy=0;" parent="1" source="X_ObQz0MvqeAvcVC8B-2-1" target="X_ObQz0MvqeAvcVC8B-2-14" edge="1">
          <mxGeometry width="50" height="50" relative="1" as="geometry">
            <mxPoint x="435" y="250" as="sourcePoint" />
            <mxPoint x="435" y="200" as="targetPoint" />
          </mxGeometry>
        </mxCell>
        <mxCell id="X_ObQz0MvqeAvcVC8B-2-24" value="d" style="ellipse;whiteSpace=wrap;html=1;aspect=fixed;" parent="1" vertex="1">
          <mxGeometry x="718" y="716.25" width="40" height="40" as="geometry" />
        </mxCell>
        <mxCell id="X_ObQz0MvqeAvcVC8B-2-25" value="MASS_CUST" style="rounded=0;whiteSpace=wrap;html=1;" parent="1" vertex="1">
          <mxGeometry x="640" y="838.75" width="83" height="30" as="geometry" />
        </mxCell>
        <mxCell id="X_ObQz0MvqeAvcVC8B-2-26" value="AFFLUENT_CUST" style="rounded=0;whiteSpace=wrap;html=1;" parent="1" vertex="1">
          <mxGeometry x="755" y="838.75" width="145" height="30" as="geometry" />
        </mxCell>
        <mxCell id="X_ObQz0MvqeAvcVC8B-2-27" value="" style="shape=link;html=1;rounded=0;entryX=0.5;entryY=1;entryDx=0;entryDy=0;width=4.666666666666666;exitX=0.5;exitY=0;exitDx=0;exitDy=0;" parent="1" source="X_ObQz0MvqeAvcVC8B-2-24" target="X_ObQz0MvqeAvcVC8B-2-4" edge="1">
          <mxGeometry width="100" relative="1" as="geometry">
            <mxPoint x="738" y="720" as="sourcePoint" />
            <mxPoint x="681" y="495" as="targetPoint" />
          </mxGeometry>
        </mxCell>
        <mxCell id="X_ObQz0MvqeAvcVC8B-2-28" value="" style="endArrow=none;html=1;rounded=0;entryX=0.5;entryY=1;entryDx=0;entryDy=0;exitX=0.5;exitY=0;exitDx=0;exitDy=0;" parent="1" source="X_ObQz0MvqeAvcVC8B-2-25" target="X_ObQz0MvqeAvcVC8B-2-24" edge="1">
          <mxGeometry width="50" height="50" relative="1" as="geometry">
            <mxPoint x="645" y="823.75" as="sourcePoint" />
            <mxPoint x="703" y="768.75" as="targetPoint" />
          </mxGeometry>
        </mxCell>
        <mxCell id="X_ObQz0MvqeAvcVC8B-2-35" value="loan customers" style="rounded=0;whiteSpace=wrap;html=1;" parent="1" vertex="1">
          <mxGeometry x="80.5" y="622.5" width="105" height="42.5" as="geometry" />
        </mxCell>
        <mxCell id="X_ObQz0MvqeAvcVC8B-2-36" value="&lt;u&gt;ID&lt;/u&gt;" style="ellipse;whiteSpace=wrap;html=1;" parent="1" vertex="1">
          <mxGeometry x="-55" y="600" width="50" height="30" as="geometry" />
        </mxCell>
        <mxCell id="X_ObQz0MvqeAvcVC8B-2-37" value="total loan amt" style="ellipse;whiteSpace=wrap;html=1;" parent="1" vertex="1">
          <mxGeometry x="-75" y="650" width="80" height="40" as="geometry" />
        </mxCell>
        <mxCell id="X_ObQz0MvqeAvcVC8B-2-38" value="total credit limit" style="ellipse;whiteSpace=wrap;html=1;" parent="1" vertex="1">
          <mxGeometry x="-75" y="710" width="90" height="40" as="geometry" />
        </mxCell>
        <mxCell id="X_ObQz0MvqeAvcVC8B-2-39" value="" style="endArrow=none;html=1;rounded=0;exitX=1;exitY=0.5;exitDx=0;exitDy=0;entryX=0;entryY=0.5;entryDx=0;entryDy=0;" parent="1" source="X_ObQz0MvqeAvcVC8B-2-36" target="X_ObQz0MvqeAvcVC8B-2-35" edge="1">
          <mxGeometry width="50" height="50" relative="1" as="geometry">
            <mxPoint x="425" y="640" as="sourcePoint" />
            <mxPoint x="475" y="590" as="targetPoint" />
          </mxGeometry>
        </mxCell>
        <mxCell id="X_ObQz0MvqeAvcVC8B-2-40" value="" style="endArrow=none;html=1;rounded=0;exitX=1;exitY=0.5;exitDx=0;exitDy=0;entryX=0;entryY=0.5;entryDx=0;entryDy=0;" parent="1" source="X_ObQz0MvqeAvcVC8B-2-37" target="X_ObQz0MvqeAvcVC8B-2-35" edge="1">
          <mxGeometry width="50" height="50" relative="1" as="geometry">
            <mxPoint x="95" y="625" as="sourcePoint" />
            <mxPoint x="135" y="670" as="targetPoint" />
          </mxGeometry>
        </mxCell>
        <mxCell id="X_ObQz0MvqeAvcVC8B-2-41" value="" style="endArrow=none;html=1;rounded=0;exitX=1;exitY=0.5;exitDx=0;exitDy=0;entryX=0;entryY=0.5;entryDx=0;entryDy=0;" parent="1" source="X_ObQz0MvqeAvcVC8B-2-38" target="X_ObQz0MvqeAvcVC8B-2-35" edge="1">
          <mxGeometry width="50" height="50" relative="1" as="geometry">
            <mxPoint x="99" y="678" as="sourcePoint" />
            <mxPoint x="135" y="670" as="targetPoint" />
          </mxGeometry>
        </mxCell>
        <mxCell id="X_ObQz0MvqeAvcVC8B-2-49" value="loan amt" style="ellipse;whiteSpace=wrap;html=1;" parent="1" vertex="1">
          <mxGeometry x="-60" y="280" width="100" height="40" as="geometry" />
        </mxCell>
        <mxCell id="X_ObQz0MvqeAvcVC8B-2-53" value="" style="endArrow=none;html=1;rounded=0;exitX=1;exitY=1;exitDx=0;exitDy=0;entryX=0;entryY=0.5;entryDx=0;entryDy=0;" parent="1" source="M4s5TThnSfctJDCdHLJB-11" edge="1">
          <mxGeometry width="50" height="50" relative="1" as="geometry">
            <mxPoint x="25" y="180" as="sourcePoint" />
            <mxPoint x="80" y="260" as="targetPoint" />
          </mxGeometry>
        </mxCell>
        <mxCell id="X_ObQz0MvqeAvcVC8B-2-54" value="" style="endArrow=none;html=1;rounded=0;exitX=1;exitY=0.5;exitDx=0;exitDy=0;entryX=0;entryY=0.5;entryDx=0;entryDy=0;" parent="1" source="X_ObQz0MvqeAvcVC8B-2-110" edge="1">
          <mxGeometry width="50" height="50" relative="1" as="geometry">
            <mxPoint x="40" y="240" as="sourcePoint" />
            <mxPoint x="80" y="260" as="targetPoint" />
          </mxGeometry>
        </mxCell>
        <mxCell id="X_ObQz0MvqeAvcVC8B-2-55" value="" style="endArrow=none;html=1;rounded=0;exitX=1.006;exitY=0.3;exitDx=0;exitDy=0;entryX=0;entryY=0.5;entryDx=0;entryDy=0;exitPerimeter=0;" parent="1" source="X_ObQz0MvqeAvcVC8B-2-49" edge="1">
          <mxGeometry width="50" height="50" relative="1" as="geometry">
            <mxPoint x="50" y="255" as="sourcePoint" />
            <mxPoint x="80" y="260" as="targetPoint" />
          </mxGeometry>
        </mxCell>
        <mxCell id="X_ObQz0MvqeAvcVC8B-2-56" value="&lt;u&gt;ID&lt;/u&gt;" style="ellipse;whiteSpace=wrap;html=1;" parent="1" vertex="1">
          <mxGeometry x="-60" y="885" width="50" height="30" as="geometry" />
        </mxCell>
        <mxCell id="X_ObQz0MvqeAvcVC8B-2-57" value="monthly spending" style="ellipse;whiteSpace=wrap;html=1;" parent="1" vertex="1">
          <mxGeometry x="23" y="895" width="80" height="40" as="geometry" />
        </mxCell>
        <mxCell id="X_ObQz0MvqeAvcVC8B-2-59" style="edgeStyle=orthogonalEdgeStyle;rounded=0;orthogonalLoop=1;jettySize=auto;html=1;exitX=0.5;exitY=1;exitDx=0;exitDy=0;" parent="1" edge="1">
          <mxGeometry relative="1" as="geometry">
            <mxPoint x="87.5" y="930" as="sourcePoint" />
            <mxPoint x="87.5" y="930" as="targetPoint" />
          </mxGeometry>
        </mxCell>
        <mxCell id="X_ObQz0MvqeAvcVC8B-2-60" value="" style="endArrow=none;html=1;rounded=0;exitX=0.5;exitY=1;exitDx=0;exitDy=0;entryX=0.5;entryY=0;entryDx=0;entryDy=0;" parent="1" source="X_ObQz0MvqeAvcVC8B-2-3" target="X_ObQz0MvqeAvcVC8B-2-56" edge="1">
          <mxGeometry width="50" height="50" relative="1" as="geometry">
            <mxPoint x="-62.5" y="562.5" as="sourcePoint" />
            <mxPoint x="-37.5" y="875" as="targetPoint" />
          </mxGeometry>
        </mxCell>
        <mxCell id="X_ObQz0MvqeAvcVC8B-2-61" value="" style="endArrow=none;html=1;rounded=0;exitX=0.5;exitY=1;exitDx=0;exitDy=0;entryX=0.5;entryY=0;entryDx=0;entryDy=0;" parent="1" source="X_ObQz0MvqeAvcVC8B-2-3" target="X_ObQz0MvqeAvcVC8B-2-57" edge="1">
          <mxGeometry width="50" height="50" relative="1" as="geometry">
            <mxPoint x="215.5" y="745" as="sourcePoint" />
            <mxPoint x="87.5" y="890" as="targetPoint" />
          </mxGeometry>
        </mxCell>
        <mxCell id="X_ObQz0MvqeAvcVC8B-2-62" value="" style="endArrow=none;html=1;rounded=0;entryX=0.5;entryY=0;entryDx=0;entryDy=0;exitX=0.5;exitY=1;exitDx=0;exitDy=0;" parent="1" source="X_ObQz0MvqeAvcVC8B-2-3" target="X_ObQz0MvqeAvcVC8B-2-81" edge="1">
          <mxGeometry width="50" height="50" relative="1" as="geometry">
            <mxPoint x="202.5" y="735" as="sourcePoint" />
            <mxPoint x="157.5" y="780" as="targetPoint" />
          </mxGeometry>
        </mxCell>
        <mxCell id="X_ObQz0MvqeAvcVC8B-2-65" value="&lt;u&gt;CUST_ID&lt;/u&gt;" style="ellipse;whiteSpace=wrap;html=1;" parent="1" vertex="1">
          <mxGeometry x="935" y="610" width="115" height="30" as="geometry" />
        </mxCell>
        <mxCell id="X_ObQz0MvqeAvcVC8B-2-66" value="AUM" style="ellipse;whiteSpace=wrap;html=1;" parent="1" vertex="1">
          <mxGeometry x="970" y="653" width="60" height="40" as="geometry" />
        </mxCell>
        <mxCell id="X_ObQz0MvqeAvcVC8B-2-68" value="" style="endArrow=none;html=1;rounded=0;entryX=1;entryY=0.5;entryDx=0;entryDy=0;exitX=0;exitY=0.5;exitDx=0;exitDy=0;" parent="1" source="X_ObQz0MvqeAvcVC8B-2-65" target="X_ObQz0MvqeAvcVC8B-2-4" edge="1">
          <mxGeometry width="50" height="50" relative="1" as="geometry">
            <mxPoint x="758" y="765" as="sourcePoint" />
            <mxPoint x="713" y="735" as="targetPoint" />
          </mxGeometry>
        </mxCell>
        <mxCell id="X_ObQz0MvqeAvcVC8B-2-69" value="" style="endArrow=none;html=1;rounded=0;entryX=1;entryY=0.5;entryDx=0;entryDy=0;exitX=0;exitY=0.5;exitDx=0;exitDy=0;" parent="1" source="X_ObQz0MvqeAvcVC8B-2-66" target="X_ObQz0MvqeAvcVC8B-2-4" edge="1">
          <mxGeometry width="50" height="50" relative="1" as="geometry">
            <mxPoint x="820" y="694.5" as="sourcePoint" />
            <mxPoint x="775" y="694.5" as="targetPoint" />
          </mxGeometry>
        </mxCell>
        <mxCell id="X_ObQz0MvqeAvcVC8B-2-70" value="BRANCH_CD" style="ellipse;shape=doubleEllipse;margin=3;whiteSpace=wrap;html=1;align=center;" parent="1" vertex="1">
          <mxGeometry x="950" y="700" width="100" height="40" as="geometry" />
        </mxCell>
        <mxCell id="X_ObQz0MvqeAvcVC8B-2-71" value="" style="endArrow=none;html=1;rounded=0;entryX=1;entryY=0.5;entryDx=0;entryDy=0;exitX=0;exitY=0.5;exitDx=0;exitDy=0;" parent="1" source="X_ObQz0MvqeAvcVC8B-2-70" target="X_ObQz0MvqeAvcVC8B-2-4" edge="1">
          <mxGeometry width="50" height="50" relative="1" as="geometry">
            <mxPoint x="840" y="708.75" as="sourcePoint" />
            <mxPoint x="800" y="658.75" as="targetPoint" />
          </mxGeometry>
        </mxCell>
        <mxCell id="X_ObQz0MvqeAvcVC8B-2-73" value="zip_code" style="ellipse;whiteSpace=wrap;html=1;" parent="1" vertex="1">
          <mxGeometry x="555.25" y="10" width="72" height="30" as="geometry" />
        </mxCell>
        <mxCell id="X_ObQz0MvqeAvcVC8B-2-74" value="city" style="ellipse;whiteSpace=wrap;html=1;" parent="1" vertex="1">
          <mxGeometry x="583.25" y="-60" width="72" height="30" as="geometry" />
        </mxCell>
        <mxCell id="X_ObQz0MvqeAvcVC8B-2-75" value="district" style="ellipse;whiteSpace=wrap;html=1;" parent="1" vertex="1">
          <mxGeometry x="655.25" y="-40" width="72" height="30" as="geometry" />
        </mxCell>
        <mxCell id="X_ObQz0MvqeAvcVC8B-2-76" value="streets_no" style="ellipse;whiteSpace=wrap;html=1;" parent="1" vertex="1">
          <mxGeometry x="705.25" width="72" height="30" as="geometry" />
        </mxCell>
        <mxCell id="X_ObQz0MvqeAvcVC8B-2-77" value="" style="endArrow=none;html=1;rounded=0;exitX=0.5;exitY=1;exitDx=0;exitDy=0;entryX=0.5;entryY=0;entryDx=0;entryDy=0;" parent="1" source="X_ObQz0MvqeAvcVC8B-2-73" target="X_ObQz0MvqeAvcVC8B-2-14" edge="1">
          <mxGeometry width="50" height="50" relative="1" as="geometry">
            <mxPoint x="670.75" y="40" as="sourcePoint" />
            <mxPoint x="695.25" y="120" as="targetPoint" />
          </mxGeometry>
        </mxCell>
        <mxCell id="X_ObQz0MvqeAvcVC8B-2-78" value="" style="endArrow=none;html=1;rounded=0;entryX=0.5;entryY=0;entryDx=0;entryDy=0;exitX=0.5;exitY=1;exitDx=0;exitDy=0;" parent="1" source="X_ObQz0MvqeAvcVC8B-2-74" target="X_ObQz0MvqeAvcVC8B-2-14" edge="1">
          <mxGeometry width="50" height="50" relative="1" as="geometry">
            <mxPoint x="715.25" y="75" as="sourcePoint" />
            <mxPoint x="689.25" y="124" as="targetPoint" />
          </mxGeometry>
        </mxCell>
        <mxCell id="X_ObQz0MvqeAvcVC8B-2-79" value="" style="endArrow=none;html=1;rounded=0;entryX=0.5;entryY=0;entryDx=0;entryDy=0;exitX=0.5;exitY=1;exitDx=0;exitDy=0;" parent="1" source="X_ObQz0MvqeAvcVC8B-2-75" target="X_ObQz0MvqeAvcVC8B-2-14" edge="1">
          <mxGeometry width="50" height="50" relative="1" as="geometry">
            <mxPoint x="715.25" y="115" as="sourcePoint" />
            <mxPoint x="700.25" y="135" as="targetPoint" />
          </mxGeometry>
        </mxCell>
        <mxCell id="X_ObQz0MvqeAvcVC8B-2-80" value="" style="endArrow=none;html=1;rounded=0;entryX=0.5;entryY=0;entryDx=0;entryDy=0;exitX=0.5;exitY=1;exitDx=0;exitDy=0;" parent="1" source="X_ObQz0MvqeAvcVC8B-2-76" target="X_ObQz0MvqeAvcVC8B-2-14" edge="1">
          <mxGeometry width="50" height="50" relative="1" as="geometry">
            <mxPoint x="715.25" y="155" as="sourcePoint" />
            <mxPoint x="700.25" y="135" as="targetPoint" />
          </mxGeometry>
        </mxCell>
        <mxCell id="X_ObQz0MvqeAvcVC8B-2-81" value="n_cards" style="ellipse;shape=doubleEllipse;margin=3;whiteSpace=wrap;html=1;align=center;" parent="1" vertex="1">
          <mxGeometry x="140" y="895" width="100" height="40" as="geometry" />
        </mxCell>
        <mxCell id="X_ObQz0MvqeAvcVC8B-2-83" value="&lt;u&gt;CUST_ID&lt;/u&gt;" style="ellipse;whiteSpace=wrap;html=1;" parent="1" vertex="1">
          <mxGeometry x="532.5" y="990" width="70" height="46.25" as="geometry" />
        </mxCell>
        <mxCell id="X_ObQz0MvqeAvcVC8B-2-84" value="AUM" style="ellipse;whiteSpace=wrap;html=1;" parent="1" vertex="1">
          <mxGeometry x="577.5" y="1070" width="62.5" height="41.25" as="geometry" />
        </mxCell>
        <mxCell id="X_ObQz0MvqeAvcVC8B-2-88" value="FLG_CUST_LVL" style="ellipse;whiteSpace=wrap;html=1;" parent="1" vertex="1">
          <mxGeometry x="592.5" y="1140" width="110" height="40" as="geometry" />
        </mxCell>
        <mxCell id="X_ObQz0MvqeAvcVC8B-2-89" value="" style="endArrow=none;html=1;rounded=0;entryX=0.5;entryY=1;entryDx=0;entryDy=0;exitX=0.5;exitY=0;exitDx=0;exitDy=0;" parent="1" source="X_ObQz0MvqeAvcVC8B-2-83" target="X_ObQz0MvqeAvcVC8B-2-25" edge="1">
          <mxGeometry width="50" height="50" relative="1" as="geometry">
            <mxPoint x="575.5" y="878.75" as="sourcePoint" />
            <mxPoint x="627.5" y="848.75" as="targetPoint" />
          </mxGeometry>
        </mxCell>
        <mxCell id="X_ObQz0MvqeAvcVC8B-2-90" value="" style="endArrow=none;html=1;rounded=0;entryX=0.5;entryY=1;entryDx=0;entryDy=0;exitX=0.5;exitY=0;exitDx=0;exitDy=0;" parent="1" source="X_ObQz0MvqeAvcVC8B-2-84" target="X_ObQz0MvqeAvcVC8B-2-25" edge="1">
          <mxGeometry width="50" height="50" relative="1" as="geometry">
            <mxPoint x="640" y="908.75" as="sourcePoint" />
            <mxPoint x="721" y="838.75" as="targetPoint" />
          </mxGeometry>
        </mxCell>
        <mxCell id="X_ObQz0MvqeAvcVC8B-2-91" value="" style="endArrow=none;html=1;rounded=0;entryX=0.5;entryY=1;entryDx=0;entryDy=0;exitX=0.5;exitY=0;exitDx=0;exitDy=0;" parent="1" source="X_ObQz0MvqeAvcVC8B-2-88" target="X_ObQz0MvqeAvcVC8B-2-25" edge="1">
          <mxGeometry width="50" height="50" relative="1" as="geometry">
            <mxPoint x="713" y="903.75" as="sourcePoint" />
            <mxPoint x="721" y="838.75" as="targetPoint" />
          </mxGeometry>
        </mxCell>
        <mxCell id="X_ObQz0MvqeAvcVC8B-2-92" value="&lt;u&gt;CUST_ID&lt;/u&gt;" style="ellipse;whiteSpace=wrap;html=1;" parent="1" vertex="1">
          <mxGeometry x="772.5" y="1033.75" width="70" height="36.25" as="geometry" />
        </mxCell>
        <mxCell id="X_ObQz0MvqeAvcVC8B-2-93" value="FLG_CUST_LVL" style="ellipse;whiteSpace=wrap;html=1;" parent="1" vertex="1">
          <mxGeometry x="821" y="1130" width="114" height="43.75" as="geometry" />
        </mxCell>
        <mxCell id="X_ObQz0MvqeAvcVC8B-2-94" value="AUM" style="ellipse;whiteSpace=wrap;html=1;" parent="1" vertex="1">
          <mxGeometry x="868" y="1003.75" width="60" height="41.25" as="geometry" />
        </mxCell>
        <mxCell id="X_ObQz0MvqeAvcVC8B-2-95" value="" style="endArrow=none;html=1;rounded=0;entryX=0.5;entryY=1;entryDx=0;entryDy=0;exitX=0.5;exitY=0;exitDx=0;exitDy=0;" parent="1" source="X_ObQz0MvqeAvcVC8B-2-92" target="X_ObQz0MvqeAvcVC8B-2-26" edge="1">
          <mxGeometry width="50" height="50" relative="1" as="geometry">
            <mxPoint x="710" y="908.75" as="sourcePoint" />
            <mxPoint x="721" y="838.75" as="targetPoint" />
          </mxGeometry>
        </mxCell>
        <mxCell id="X_ObQz0MvqeAvcVC8B-2-96" value="" style="endArrow=none;html=1;rounded=0;entryX=0.5;entryY=1;entryDx=0;entryDy=0;exitX=0.5;exitY=0;exitDx=0;exitDy=0;" parent="1" source="X_ObQz0MvqeAvcVC8B-2-93" target="X_ObQz0MvqeAvcVC8B-2-26" edge="1">
          <mxGeometry width="50" height="50" relative="1" as="geometry">
            <mxPoint x="800" y="913.75" as="sourcePoint" />
            <mxPoint x="818" y="838.75" as="targetPoint" />
          </mxGeometry>
        </mxCell>
        <mxCell id="X_ObQz0MvqeAvcVC8B-2-97" value="" style="endArrow=none;html=1;rounded=0;entryX=0.5;entryY=1;entryDx=0;entryDy=0;exitX=0.5;exitY=0;exitDx=0;exitDy=0;" parent="1" source="X_ObQz0MvqeAvcVC8B-2-94" target="X_ObQz0MvqeAvcVC8B-2-26" edge="1">
          <mxGeometry width="50" height="50" relative="1" as="geometry">
            <mxPoint x="873" y="908.75" as="sourcePoint" />
            <mxPoint x="818" y="838.75" as="targetPoint" />
            <Array as="points" />
          </mxGeometry>
        </mxCell>
        <mxCell id="X_ObQz0MvqeAvcVC8B-2-98" value="&lt;u&gt;ID&lt;/u&gt;" style="ellipse;whiteSpace=wrap;html=1;" parent="1" vertex="1">
          <mxGeometry x="308" y="948.75" width="50" height="30" as="geometry" />
        </mxCell>
        <mxCell id="X_ObQz0MvqeAvcVC8B-2-99" value="YN_fund" style="ellipse;whiteSpace=wrap;html=1;" parent="1" vertex="1">
          <mxGeometry x="338" y="1018.75" width="75" height="40" as="geometry" />
        </mxCell>
        <mxCell id="X_ObQz0MvqeAvcVC8B-2-100" value="n_funds" style="ellipse;shape=doubleEllipse;margin=3;whiteSpace=wrap;html=1;align=center;" parent="1" vertex="1">
          <mxGeometry x="388" y="963.75" width="100" height="40" as="geometry" />
        </mxCell>
        <mxCell id="X_ObQz0MvqeAvcVC8B-2-108" value="loan_txns" style="shape=ext;margin=3;double=1;whiteSpace=wrap;html=1;align=center;" parent="1" vertex="1">
          <mxGeometry x="83" y="240" width="100" height="40" as="geometry" />
        </mxCell>
        <mxCell id="X_ObQz0MvqeAvcVC8B-2-110" value="loan_dt" style="ellipse;whiteSpace=wrap;html=1;" parent="1" vertex="1">
          <mxGeometry x="-70" y="220" width="100" height="40" as="geometry" />
        </mxCell>
        <mxCell id="X_ObQz0MvqeAvcVC8B-2-113" value="" style="shape=link;html=1;rounded=0;exitX=1;exitY=0.5;exitDx=0;exitDy=0;entryX=0;entryY=0.5;entryDx=0;entryDy=0;" parent="1" source="X_ObQz0MvqeAvcVC8B-2-108" target="X_ObQz0MvqeAvcVC8B-2-124" edge="1">
          <mxGeometry relative="1" as="geometry">
            <mxPoint x="180" y="210" as="sourcePoint" />
            <mxPoint x="240" y="260" as="targetPoint" />
          </mxGeometry>
        </mxCell>
        <mxCell id="X_ObQz0MvqeAvcVC8B-2-114" value="N" style="resizable=0;html=1;whiteSpace=wrap;align=right;verticalAlign=bottom;" parent="X_ObQz0MvqeAvcVC8B-2-113" connectable="0" vertex="1">
          <mxGeometry x="1" relative="1" as="geometry" />
        </mxCell>
        <mxCell id="X_ObQz0MvqeAvcVC8B-2-118" value="" style="endArrow=none;html=1;rounded=0;exitX=0;exitY=0.5;exitDx=0;exitDy=0;entryX=1;entryY=0.5;entryDx=0;entryDy=0;" parent="1" source="X_ObQz0MvqeAvcVC8B-2-1" target="X_ObQz0MvqeAvcVC8B-2-124" edge="1">
          <mxGeometry relative="1" as="geometry">
            <mxPoint x="340" y="219" as="sourcePoint" />
            <mxPoint x="320" y="260" as="targetPoint" />
          </mxGeometry>
        </mxCell>
        <mxCell id="X_ObQz0MvqeAvcVC8B-2-119" value="1" style="resizable=0;html=1;whiteSpace=wrap;align=right;verticalAlign=bottom;" parent="X_ObQz0MvqeAvcVC8B-2-118" connectable="0" vertex="1">
          <mxGeometry x="1" relative="1" as="geometry" />
        </mxCell>
        <mxCell id="X_ObQz0MvqeAvcVC8B-2-124" value="borrows" style="shape=rhombus;double=1;perimeter=rhombusPerimeter;whiteSpace=wrap;html=1;align=center;" parent="1" vertex="1">
          <mxGeometry x="232.5" y="235" width="90" height="50" as="geometry" />
        </mxCell>
        <mxCell id="X_ObQz0MvqeAvcVC8B-2-125" value="holds" style="shape=rhombus;double=1;perimeter=rhombusPerimeter;whiteSpace=wrap;html=1;align=center;" parent="1" vertex="1">
          <mxGeometry x="88" y="430" width="90" height="50" as="geometry" />
        </mxCell>
        <mxCell id="X_ObQz0MvqeAvcVC8B-2-126" value="" style="endArrow=none;html=1;rounded=0;exitX=0.5;exitY=0;exitDx=0;exitDy=0;entryX=0.5;entryY=1;entryDx=0;entryDy=0;" parent="1" source="X_ObQz0MvqeAvcVC8B-2-35" target="X_ObQz0MvqeAvcVC8B-2-125" edge="1">
          <mxGeometry relative="1" as="geometry">
            <mxPoint x="175" y="377.5" as="sourcePoint" />
            <mxPoint x="127.5" y="417.4000000000001" as="targetPoint" />
          </mxGeometry>
        </mxCell>
        <mxCell id="X_ObQz0MvqeAvcVC8B-2-127" value="1" style="resizable=0;html=1;whiteSpace=wrap;align=right;verticalAlign=bottom;" parent="X_ObQz0MvqeAvcVC8B-2-126" connectable="0" vertex="1">
          <mxGeometry x="1" relative="1" as="geometry">
            <mxPoint x="-4" y="14" as="offset" />
          </mxGeometry>
        </mxCell>
        <mxCell id="X_ObQz0MvqeAvcVC8B-2-128" value="" style="shape=link;html=1;rounded=0;exitX=0.5;exitY=1;exitDx=0;exitDy=0;entryX=0.5;entryY=0;entryDx=0;entryDy=0;" parent="1" source="X_ObQz0MvqeAvcVC8B-2-108" target="X_ObQz0MvqeAvcVC8B-2-125" edge="1">
          <mxGeometry relative="1" as="geometry">
            <mxPoint x="180" y="330" as="sourcePoint" />
            <mxPoint x="340" y="330" as="targetPoint" />
          </mxGeometry>
        </mxCell>
        <mxCell id="X_ObQz0MvqeAvcVC8B-2-129" value="N" style="resizable=0;html=1;whiteSpace=wrap;align=right;verticalAlign=bottom;" parent="X_ObQz0MvqeAvcVC8B-2-128" connectable="0" vertex="1">
          <mxGeometry x="1" relative="1" as="geometry">
            <mxPoint x="-3" as="offset" />
          </mxGeometry>
        </mxCell>
        <mxCell id="X_ObQz0MvqeAvcVC8B-2-130" value="employee" style="rounded=0;whiteSpace=wrap;html=1;" parent="1" vertex="1">
          <mxGeometry x="755" y="238.75" width="105" height="45" as="geometry" />
        </mxCell>
        <mxCell id="X_ObQz0MvqeAvcVC8B-2-132" value="manage" style="shape=rhombus;perimeter=rhombusPerimeter;whiteSpace=wrap;html=1;align=center;" parent="1" vertex="1">
          <mxGeometry x="574.5" y="237.5" width="106" height="47.5" as="geometry" />
        </mxCell>
        <mxCell id="X_ObQz0MvqeAvcVC8B-2-134" value="" style="endArrow=none;html=1;rounded=0;exitX=1;exitY=0.5;exitDx=0;exitDy=0;entryX=0;entryY=0.5;entryDx=0;entryDy=0;" parent="1" source="X_ObQz0MvqeAvcVC8B-2-1" target="X_ObQz0MvqeAvcVC8B-2-132" edge="1">
          <mxGeometry relative="1" as="geometry">
            <mxPoint x="492.5" y="285" as="sourcePoint" />
            <mxPoint x="652.5" y="285" as="targetPoint" />
          </mxGeometry>
        </mxCell>
        <mxCell id="X_ObQz0MvqeAvcVC8B-2-135" value="N" style="resizable=0;html=1;whiteSpace=wrap;align=right;verticalAlign=bottom;" parent="X_ObQz0MvqeAvcVC8B-2-134" connectable="0" vertex="1">
          <mxGeometry x="1" relative="1" as="geometry" />
        </mxCell>
        <mxCell id="X_ObQz0MvqeAvcVC8B-2-136" value="" style="endArrow=none;html=1;rounded=0;exitX=0;exitY=0.5;exitDx=0;exitDy=0;entryX=1;entryY=0.5;entryDx=0;entryDy=0;" parent="1" source="X_ObQz0MvqeAvcVC8B-2-130" target="X_ObQz0MvqeAvcVC8B-2-132" edge="1">
          <mxGeometry relative="1" as="geometry">
            <mxPoint x="300" y="340" as="sourcePoint" />
            <mxPoint x="460" y="340" as="targetPoint" />
          </mxGeometry>
        </mxCell>
        <mxCell id="X_ObQz0MvqeAvcVC8B-2-137" value="1" style="resizable=0;html=1;whiteSpace=wrap;align=right;verticalAlign=bottom;" parent="X_ObQz0MvqeAvcVC8B-2-136" connectable="0" vertex="1">
          <mxGeometry x="1" relative="1" as="geometry" />
        </mxCell>
        <mxCell id="X_ObQz0MvqeAvcVC8B-2-138" value="supervise" style="shape=rhombus;perimeter=rhombusPerimeter;whiteSpace=wrap;html=1;align=center;" parent="1" vertex="1">
          <mxGeometry x="755" y="120" width="106" height="47.5" as="geometry" />
        </mxCell>
        <mxCell id="X_ObQz0MvqeAvcVC8B-2-146" value="" style="endArrow=none;html=1;rounded=0;entryX=0.5;entryY=1;entryDx=0;entryDy=0;exitX=0.5;exitY=0;exitDx=0;exitDy=0;" parent="1" source="X_ObQz0MvqeAvcVC8B-2-130" target="X_ObQz0MvqeAvcVC8B-2-138" edge="1">
          <mxGeometry relative="1" as="geometry">
            <mxPoint x="740" y="340" as="sourcePoint" />
            <mxPoint x="900" y="340" as="targetPoint" />
          </mxGeometry>
        </mxCell>
        <mxCell id="X_ObQz0MvqeAvcVC8B-2-147" value="1" style="resizable=0;html=1;whiteSpace=wrap;align=right;verticalAlign=bottom;" parent="X_ObQz0MvqeAvcVC8B-2-146" connectable="0" vertex="1">
          <mxGeometry x="1" relative="1" as="geometry">
            <mxPoint x="-4" y="17" as="offset" />
          </mxGeometry>
        </mxCell>
        <mxCell id="X_ObQz0MvqeAvcVC8B-2-148" value="" style="endArrow=none;html=1;rounded=0;entryX=1;entryY=0.5;entryDx=0;entryDy=0;exitX=1;exitY=0.5;exitDx=0;exitDy=0;edgeStyle=orthogonalEdgeStyle;" parent="1" source="X_ObQz0MvqeAvcVC8B-2-130" target="X_ObQz0MvqeAvcVC8B-2-138" edge="1">
          <mxGeometry relative="1" as="geometry">
            <mxPoint x="740" y="340" as="sourcePoint" />
            <mxPoint x="900" y="340" as="targetPoint" />
            <Array as="points">
              <mxPoint x="900" y="261" />
              <mxPoint x="900" y="144" />
            </Array>
          </mxGeometry>
        </mxCell>
        <mxCell id="X_ObQz0MvqeAvcVC8B-2-149" value="N" style="resizable=0;html=1;whiteSpace=wrap;align=right;verticalAlign=bottom;" parent="X_ObQz0MvqeAvcVC8B-2-148" connectable="0" vertex="1">
          <mxGeometry x="1" relative="1" as="geometry" />
        </mxCell>
        <mxCell id="X_ObQz0MvqeAvcVC8B-2-150" value="supervisor" style="text;strokeColor=none;fillColor=none;align=center;verticalAlign=middle;spacingLeft=4;spacingRight=4;overflow=hidden;points=[[0,0.5],[1,0.5]];portConstraint=eastwest;rotatable=0;whiteSpace=wrap;html=1;" parent="1" vertex="1">
          <mxGeometry x="720" y="160" width="80" height="30" as="geometry" />
        </mxCell>
        <mxCell id="X_ObQz0MvqeAvcVC8B-2-151" value="supervisee" style="text;strokeColor=none;fillColor=none;align=center;verticalAlign=middle;spacingLeft=4;spacingRight=4;overflow=hidden;points=[[0,0.5],[1,0.5]];portConstraint=eastwest;rotatable=0;whiteSpace=wrap;html=1;" parent="1" vertex="1">
          <mxGeometry x="858" y="117" width="80" height="30" as="geometry" />
        </mxCell>
        <mxCell id="X_ObQz0MvqeAvcVC8B-2-152" value="ACCT" style="rounded=0;whiteSpace=wrap;html=1;" parent="1" vertex="1">
          <mxGeometry x="685" y="410" width="105" height="45" as="geometry" />
        </mxCell>
        <mxCell id="X_ObQz0MvqeAvcVC8B-2-153" value="hold" style="shape=rhombus;perimeter=rhombusPerimeter;whiteSpace=wrap;html=1;align=center;" parent="1" vertex="1">
          <mxGeometry x="677.5" y="520" width="120" height="50" as="geometry" />
        </mxCell>
        <mxCell id="X_ObQz0MvqeAvcVC8B-2-154" value="" style="endArrow=none;html=1;rounded=0;entryX=0.5;entryY=0;entryDx=0;entryDy=0;exitX=0.5;exitY=1;exitDx=0;exitDy=0;" parent="1" source="X_ObQz0MvqeAvcVC8B-2-5" target="X_ObQz0MvqeAvcVC8B-2-98" edge="1">
          <mxGeometry width="50" height="50" relative="1" as="geometry">
            <mxPoint x="215.75" y="820" as="sourcePoint" />
            <mxPoint x="257.75" y="920" as="targetPoint" />
          </mxGeometry>
        </mxCell>
        <mxCell id="X_ObQz0MvqeAvcVC8B-2-155" value="" style="endArrow=none;html=1;rounded=0;entryX=0.5;entryY=0;entryDx=0;entryDy=0;exitX=0.5;exitY=1;exitDx=0;exitDy=0;" parent="1" source="X_ObQz0MvqeAvcVC8B-2-5" target="X_ObQz0MvqeAvcVC8B-2-99" edge="1">
          <mxGeometry width="50" height="50" relative="1" as="geometry">
            <mxPoint x="430.75" y="835" as="sourcePoint" />
            <mxPoint x="372.75" y="925" as="targetPoint" />
          </mxGeometry>
        </mxCell>
        <mxCell id="X_ObQz0MvqeAvcVC8B-2-156" value="" style="endArrow=none;html=1;rounded=0;entryX=0.5;entryY=0;entryDx=0;entryDy=0;exitX=0.5;exitY=1;exitDx=0;exitDy=0;" parent="1" source="X_ObQz0MvqeAvcVC8B-2-5" target="X_ObQz0MvqeAvcVC8B-2-100" edge="1">
          <mxGeometry width="50" height="50" relative="1" as="geometry">
            <mxPoint x="430.75" y="835" as="sourcePoint" />
            <mxPoint x="445.75" y="920" as="targetPoint" />
          </mxGeometry>
        </mxCell>
        <mxCell id="X_ObQz0MvqeAvcVC8B-2-157" value="" style="endArrow=none;html=1;rounded=0;entryX=0.5;entryY=0;entryDx=0;entryDy=0;exitX=0.5;exitY=1;exitDx=0;exitDy=0;" parent="1" source="X_ObQz0MvqeAvcVC8B-2-6" target="X_ObQz0MvqeAvcVC8B-2-5" edge="1">
          <mxGeometry width="50" height="50" relative="1" as="geometry">
            <mxPoint x="373" y="820" as="sourcePoint" />
            <mxPoint x="358" y="980" as="targetPoint" />
          </mxGeometry>
        </mxCell>
        <mxCell id="X_ObQz0MvqeAvcVC8B-2-158" value="" style="endArrow=none;html=1;rounded=0;entryX=0;entryY=0.5;entryDx=0;entryDy=0;exitX=1;exitY=0.5;exitDx=0;exitDy=0;" parent="1" source="X_ObQz0MvqeAvcVC8B-2-6" target="X_ObQz0MvqeAvcVC8B-2-4" edge="1">
          <mxGeometry width="50" height="50" relative="1" as="geometry">
            <mxPoint x="440.5" y="690" as="sourcePoint" />
            <mxPoint x="665.5" y="690" as="targetPoint" />
          </mxGeometry>
        </mxCell>
        <mxCell id="X_ObQz0MvqeAvcVC8B-2-166" value="" style="shape=link;html=1;rounded=0;exitX=0.5;exitY=1;exitDx=0;exitDy=0;entryX=0.5;entryY=0;entryDx=0;entryDy=0;" parent="1" source="X_ObQz0MvqeAvcVC8B-2-152" target="X_ObQz0MvqeAvcVC8B-2-153" edge="1">
          <mxGeometry relative="1" as="geometry">
            <mxPoint x="670" y="490" as="sourcePoint" />
            <mxPoint x="830" y="490" as="targetPoint" />
          </mxGeometry>
        </mxCell>
        <mxCell id="X_ObQz0MvqeAvcVC8B-2-168" value="N" style="resizable=0;html=1;whiteSpace=wrap;align=right;verticalAlign=bottom;" parent="X_ObQz0MvqeAvcVC8B-2-166" connectable="0" vertex="1">
          <mxGeometry x="1" relative="1" as="geometry">
            <mxPoint x="-4" as="offset" />
          </mxGeometry>
        </mxCell>
        <mxCell id="X_ObQz0MvqeAvcVC8B-2-169" value="" style="shape=link;html=1;rounded=0;exitX=0.5;exitY=1;exitDx=0;exitDy=0;entryX=0.5;entryY=0;entryDx=0;entryDy=0;" parent="1" source="X_ObQz0MvqeAvcVC8B-2-153" target="X_ObQz0MvqeAvcVC8B-2-4" edge="1">
          <mxGeometry relative="1" as="geometry">
            <mxPoint x="670" y="490" as="sourcePoint" />
            <mxPoint x="830" y="490" as="targetPoint" />
          </mxGeometry>
        </mxCell>
        <mxCell id="X_ObQz0MvqeAvcVC8B-2-170" value="M" style="resizable=0;html=1;whiteSpace=wrap;align=left;verticalAlign=bottom;" parent="X_ObQz0MvqeAvcVC8B-2-169" connectable="0" vertex="1">
          <mxGeometry x="-1" relative="1" as="geometry">
            <mxPoint x="-19" y="18" as="offset" />
          </mxGeometry>
        </mxCell>
        <mxCell id="X_ObQz0MvqeAvcVC8B-2-172" value="branch" style="rounded=0;whiteSpace=wrap;html=1;" parent="1" vertex="1">
          <mxGeometry x="1050" y="409.5" width="105" height="45" as="geometry" />
        </mxCell>
        <mxCell id="X_ObQz0MvqeAvcVC8B-2-173" value="maintain" style="shape=rhombus;perimeter=rhombusPerimeter;whiteSpace=wrap;html=1;align=center;" parent="1" vertex="1">
          <mxGeometry x="861" y="407.5" width="120" height="50" as="geometry" />
        </mxCell>
        <mxCell id="X_ObQz0MvqeAvcVC8B-2-176" value="" style="endArrow=none;html=1;rounded=0;exitX=0;exitY=0.5;exitDx=0;exitDy=0;entryX=1;entryY=0.5;entryDx=0;entryDy=0;" parent="1" source="X_ObQz0MvqeAvcVC8B-2-172" target="X_ObQz0MvqeAvcVC8B-2-173" edge="1">
          <mxGeometry relative="1" as="geometry">
            <mxPoint x="670" y="390" as="sourcePoint" />
            <mxPoint x="830" y="390" as="targetPoint" />
          </mxGeometry>
        </mxCell>
        <mxCell id="X_ObQz0MvqeAvcVC8B-2-177" value="1" style="resizable=0;html=1;whiteSpace=wrap;align=right;verticalAlign=bottom;" parent="X_ObQz0MvqeAvcVC8B-2-176" connectable="0" vertex="1">
          <mxGeometry x="1" relative="1" as="geometry" />
        </mxCell>
        <mxCell id="X_ObQz0MvqeAvcVC8B-2-178" value="&lt;u&gt;ACCT_NO&lt;/u&gt;" style="ellipse;whiteSpace=wrap;html=1;" parent="1" vertex="1">
          <mxGeometry x="617.5" y="320" width="67.5" height="38" as="geometry" />
        </mxCell>
        <mxCell id="X_ObQz0MvqeAvcVC8B-2-179" value="CUST_ID" style="ellipse;whiteSpace=wrap;html=1;" parent="1" vertex="1">
          <mxGeometry x="700" y="330" width="60" height="40" as="geometry" />
        </mxCell>
        <mxCell id="X_ObQz0MvqeAvcVC8B-2-180" value="ACCT_TYP" style="ellipse;shape=doubleEllipse;margin=3;whiteSpace=wrap;html=1;align=center;" parent="1" vertex="1">
          <mxGeometry x="532" y="358" width="100" height="40" as="geometry" />
        </mxCell>
        <mxCell id="X_ObQz0MvqeAvcVC8B-2-181" value="" style="endArrow=none;html=1;rounded=0;exitX=0.5;exitY=1;exitDx=0;exitDy=0;entryX=0.5;entryY=0;entryDx=0;entryDy=0;" parent="1" source="X_ObQz0MvqeAvcVC8B-2-179" target="X_ObQz0MvqeAvcVC8B-2-152" edge="1">
          <mxGeometry relative="1" as="geometry">
            <mxPoint x="670" y="560" as="sourcePoint" />
            <mxPoint x="830" y="560" as="targetPoint" />
          </mxGeometry>
        </mxCell>
        <mxCell id="X_ObQz0MvqeAvcVC8B-2-182" value="" style="endArrow=none;html=1;rounded=0;exitX=0.5;exitY=1;exitDx=0;exitDy=0;entryX=0.5;entryY=0;entryDx=0;entryDy=0;" parent="1" source="X_ObQz0MvqeAvcVC8B-2-178" target="X_ObQz0MvqeAvcVC8B-2-152" edge="1">
          <mxGeometry relative="1" as="geometry">
            <mxPoint x="740" y="380" as="sourcePoint" />
            <mxPoint x="748" y="420" as="targetPoint" />
          </mxGeometry>
        </mxCell>
        <mxCell id="X_ObQz0MvqeAvcVC8B-2-183" value="" style="endArrow=none;html=1;rounded=0;exitX=1;exitY=0.5;exitDx=0;exitDy=0;entryX=0.5;entryY=0;entryDx=0;entryDy=0;" parent="1" source="X_ObQz0MvqeAvcVC8B-2-180" target="X_ObQz0MvqeAvcVC8B-2-152" edge="1">
          <mxGeometry relative="1" as="geometry">
            <mxPoint x="661" y="368" as="sourcePoint" />
            <mxPoint x="748" y="420" as="targetPoint" />
          </mxGeometry>
        </mxCell>
        <mxCell id="X_ObQz0MvqeAvcVC8B-2-184" value="&lt;u&gt;BRANCH_CD&lt;/u&gt;" style="ellipse;whiteSpace=wrap;html=1;" parent="1" vertex="1">
          <mxGeometry x="1200" y="330" width="100" height="40" as="geometry" />
        </mxCell>
        <mxCell id="X_ObQz0MvqeAvcVC8B-2-185" value="AREA" style="ellipse;whiteSpace=wrap;html=1;" parent="1" vertex="1">
          <mxGeometry x="1230" y="407.5" width="98" height="40" as="geometry" />
        </mxCell>
        <mxCell id="X_ObQz0MvqeAvcVC8B-2-188" value="BRANCH_NM" style="ellipse;whiteSpace=wrap;html=1;" parent="1" vertex="1">
          <mxGeometry x="1220" y="500" width="98" height="40" as="geometry" />
        </mxCell>
        <mxCell id="X_ObQz0MvqeAvcVC8B-2-191" value="" style="endArrow=none;html=1;rounded=0;entryX=0;entryY=0.5;entryDx=0;entryDy=0;exitX=1;exitY=0.5;exitDx=0;exitDy=0;" parent="1" source="X_ObQz0MvqeAvcVC8B-2-172" target="X_ObQz0MvqeAvcVC8B-2-184" edge="1">
          <mxGeometry relative="1" as="geometry">
            <mxPoint x="670" y="560" as="sourcePoint" />
            <mxPoint x="830" y="560" as="targetPoint" />
          </mxGeometry>
        </mxCell>
        <mxCell id="X_ObQz0MvqeAvcVC8B-2-192" value="" style="endArrow=none;html=1;rounded=0;entryX=0;entryY=0.5;entryDx=0;entryDy=0;exitX=1;exitY=0.5;exitDx=0;exitDy=0;" parent="1" source="X_ObQz0MvqeAvcVC8B-2-172" target="X_ObQz0MvqeAvcVC8B-2-185" edge="1">
          <mxGeometry relative="1" as="geometry">
            <mxPoint x="1165" y="442" as="sourcePoint" />
            <mxPoint x="1210" y="360" as="targetPoint" />
          </mxGeometry>
        </mxCell>
        <mxCell id="X_ObQz0MvqeAvcVC8B-2-193" value="" style="endArrow=none;html=1;rounded=0;entryX=0;entryY=0.5;entryDx=0;entryDy=0;exitX=1;exitY=0.5;exitDx=0;exitDy=0;" parent="1" source="X_ObQz0MvqeAvcVC8B-2-172" target="X_ObQz0MvqeAvcVC8B-2-188" edge="1">
          <mxGeometry relative="1" as="geometry">
            <mxPoint x="1165" y="442" as="sourcePoint" />
            <mxPoint x="1240" y="438" as="targetPoint" />
          </mxGeometry>
        </mxCell>
        <mxCell id="X_ObQz0MvqeAvcVC8B-2-194" value="" style="shape=link;html=1;rounded=0;entryX=0;entryY=0.5;entryDx=0;entryDy=0;exitX=1;exitY=0.5;exitDx=0;exitDy=0;" parent="1" source="X_ObQz0MvqeAvcVC8B-2-152" target="X_ObQz0MvqeAvcVC8B-2-173" edge="1">
          <mxGeometry relative="1" as="geometry">
            <mxPoint x="670" y="640" as="sourcePoint" />
            <mxPoint x="830" y="640" as="targetPoint" />
          </mxGeometry>
        </mxCell>
        <mxCell id="X_ObQz0MvqeAvcVC8B-2-195" value="N" style="resizable=0;html=1;whiteSpace=wrap;align=right;verticalAlign=bottom;" parent="X_ObQz0MvqeAvcVC8B-2-194" connectable="0" vertex="1">
          <mxGeometry x="1" relative="1" as="geometry" />
        </mxCell>
        <mxCell id="X_ObQz0MvqeAvcVC8B-2-196" value="bank corporate customers" style="rounded=0;whiteSpace=wrap;html=1;" parent="1" vertex="1">
          <mxGeometry x="205.5" y="117" width="117" height="40" as="geometry" />
        </mxCell>
        <mxCell id="X_ObQz0MvqeAvcVC8B-2-197" value="bank customers" style="rounded=0;whiteSpace=wrap;html=1;" parent="1" vertex="1">
          <mxGeometry x="279" y="-100" width="117" height="40" as="geometry" />
        </mxCell>
        <mxCell id="X_ObQz0MvqeAvcVC8B-2-198" value="u" style="ellipse;whiteSpace=wrap;html=1;aspect=fixed;" parent="1" vertex="1">
          <mxGeometry x="322.5" y="30" width="30" height="30" as="geometry" />
        </mxCell>
        <mxCell id="X_ObQz0MvqeAvcVC8B-2-199" value="" style="endArrow=none;html=1;rounded=0;entryX=0.5;entryY=1;entryDx=0;entryDy=0;exitX=0.5;exitY=0;exitDx=0;exitDy=0;" parent="1" source="X_ObQz0MvqeAvcVC8B-2-196" target="X_ObQz0MvqeAvcVC8B-2-198" edge="1">
          <mxGeometry width="50" height="50" relative="1" as="geometry">
            <mxPoint x="436" y="249" as="sourcePoint" />
            <mxPoint x="503" y="150" as="targetPoint" />
          </mxGeometry>
        </mxCell>
        <mxCell id="X_ObQz0MvqeAvcVC8B-2-200" value="" style="endArrow=none;html=1;rounded=0;entryX=0.5;entryY=1;entryDx=0;entryDy=0;exitX=0.5;exitY=0;exitDx=0;exitDy=0;" parent="1" source="X_ObQz0MvqeAvcVC8B-2-1" target="X_ObQz0MvqeAvcVC8B-2-198" edge="1">
          <mxGeometry width="50" height="50" relative="1" as="geometry">
            <mxPoint x="274" y="127" as="sourcePoint" />
            <mxPoint x="348" y="70" as="targetPoint" />
          </mxGeometry>
        </mxCell>
        <mxCell id="X_ObQz0MvqeAvcVC8B-2-201" value="" style="endArrow=none;html=1;rounded=0;entryX=0.5;entryY=1;entryDx=0;entryDy=0;exitX=0.5;exitY=0;exitDx=0;exitDy=0;" parent="1" source="X_ObQz0MvqeAvcVC8B-2-198" target="X_ObQz0MvqeAvcVC8B-2-197" edge="1">
          <mxGeometry width="50" height="50" relative="1" as="geometry">
            <mxPoint x="274" y="127" as="sourcePoint" />
            <mxPoint x="348" y="70" as="targetPoint" />
          </mxGeometry>
        </mxCell>
        <mxCell id="X_ObQz0MvqeAvcVC8B-2-202" value="U" style="text;html=1;strokeColor=none;fillColor=none;align=center;verticalAlign=middle;whiteSpace=wrap;rounded=0;rotation=-180;" parent="1" vertex="1">
          <mxGeometry x="308" y="-30" width="60" height="30" as="geometry" />
        </mxCell>
        <mxCell id="X_ObQz0MvqeAvcVC8B-2-203" value="U" style="text;html=1;strokeColor=none;fillColor=none;align=center;verticalAlign=middle;whiteSpace=wrap;rounded=0;rotation=90;" parent="1" vertex="1">
          <mxGeometry x="250" y="622.5" width="38.12" height="44.75" as="geometry" />
        </mxCell>
        <mxCell id="X_ObQz0MvqeAvcVC8B-2-204" value="U" style="text;html=1;strokeColor=none;fillColor=none;align=center;verticalAlign=middle;whiteSpace=wrap;rounded=0;rotation=75;" parent="1" vertex="1">
          <mxGeometry x="238.12" y="693" width="50" height="44.75" as="geometry" />
        </mxCell>
        <mxCell id="X_ObQz0MvqeAvcVC8B-2-205" value="U" style="text;html=1;strokeColor=none;fillColor=none;align=center;verticalAlign=middle;whiteSpace=wrap;rounded=0;rotation=0;" parent="1" vertex="1">
          <mxGeometry x="400.5" y="716.25" width="50" height="44.75" as="geometry" />
        </mxCell>
        <mxCell id="X_ObQz0MvqeAvcVC8B-2-207" value="U" style="text;html=1;strokeColor=none;fillColor=none;align=center;verticalAlign=middle;whiteSpace=wrap;rounded=0;rotation=-90;" parent="1" vertex="1">
          <mxGeometry x="542.5" y="619.5" width="50" height="51" as="geometry" />
        </mxCell>
        <mxCell id="X_ObQz0MvqeAvcVC8B-2-209" value="U" style="text;html=1;strokeColor=none;fillColor=none;align=center;verticalAlign=middle;whiteSpace=wrap;rounded=0;rotation=30;" parent="1" vertex="1">
          <mxGeometry x="675.25" y="786.75" width="50" height="51" as="geometry" />
        </mxCell>
        <mxCell id="X_ObQz0MvqeAvcVC8B-2-211" value="&lt;u&gt;comp_id&lt;/u&gt;" style="ellipse;whiteSpace=wrap;html=1;" parent="1" vertex="1">
          <mxGeometry x="147.5" y="-100" width="85" height="40" as="geometry" />
        </mxCell>
        <mxCell id="X_ObQz0MvqeAvcVC8B-2-212" value="address" style="ellipse;whiteSpace=wrap;html=1;" parent="1" vertex="1">
          <mxGeometry x="30" y="20" width="100" height="40" as="geometry" />
        </mxCell>
        <mxCell id="X_ObQz0MvqeAvcVC8B-2-213" value="comp_name" style="ellipse;whiteSpace=wrap;html=1;" parent="1" vertex="1">
          <mxGeometry x="30" y="-70" width="100" height="40" as="geometry" />
        </mxCell>
        <mxCell id="X_ObQz0MvqeAvcVC8B-2-214" value="" style="endArrow=none;html=1;rounded=0;entryX=1;entryY=1;entryDx=0;entryDy=0;exitX=0.5;exitY=0;exitDx=0;exitDy=0;" parent="1" source="X_ObQz0MvqeAvcVC8B-2-196" target="X_ObQz0MvqeAvcVC8B-2-212" edge="1">
          <mxGeometry width="50" height="50" relative="1" as="geometry">
            <mxPoint x="270" y="140" as="sourcePoint" />
            <mxPoint x="320" y="90" as="targetPoint" />
          </mxGeometry>
        </mxCell>
        <mxCell id="X_ObQz0MvqeAvcVC8B-2-215" value="" style="endArrow=none;html=1;rounded=0;entryX=1;entryY=1;entryDx=0;entryDy=0;exitX=0.5;exitY=0;exitDx=0;exitDy=0;" parent="1" source="X_ObQz0MvqeAvcVC8B-2-196" target="X_ObQz0MvqeAvcVC8B-2-213" edge="1">
          <mxGeometry width="50" height="50" relative="1" as="geometry">
            <mxPoint x="270" y="120" as="sourcePoint" />
            <mxPoint x="125" y="64" as="targetPoint" />
          </mxGeometry>
        </mxCell>
        <mxCell id="X_ObQz0MvqeAvcVC8B-2-216" value="" style="endArrow=none;html=1;rounded=0;entryX=0.5;entryY=1;entryDx=0;entryDy=0;exitX=0.5;exitY=0;exitDx=0;exitDy=0;" parent="1" source="X_ObQz0MvqeAvcVC8B-2-196" target="X_ObQz0MvqeAvcVC8B-2-211" edge="1">
          <mxGeometry width="50" height="50" relative="1" as="geometry">
            <mxPoint x="270" y="120" as="sourcePoint" />
            <mxPoint x="125" y="-26" as="targetPoint" />
          </mxGeometry>
        </mxCell>
        <mxCell id="X_ObQz0MvqeAvcVC8B-2-217" value="start_date" style="ellipse;whiteSpace=wrap;html=1;" parent="1" vertex="1">
          <mxGeometry x="425" y="-270" width="85" height="40" as="geometry" />
        </mxCell>
        <mxCell id="X_ObQz0MvqeAvcVC8B-2-218" value="customer_type" style="ellipse;whiteSpace=wrap;html=1;" parent="1" vertex="1">
          <mxGeometry x="170" y="-270" width="100" height="40" as="geometry" />
        </mxCell>
        <mxCell id="X_ObQz0MvqeAvcVC8B-2-219" value="&lt;u&gt;cust_id&lt;/u&gt;" style="ellipse;whiteSpace=wrap;html=1;" parent="1" vertex="1">
          <mxGeometry x="300.5" y="-270" width="100" height="40" as="geometry" />
        </mxCell>
        <mxCell id="X_ObQz0MvqeAvcVC8B-2-220" value="" style="endArrow=none;html=1;rounded=0;entryX=0.5;entryY=1;entryDx=0;entryDy=0;exitX=0.5;exitY=0;exitDx=0;exitDy=0;" parent="1" source="X_ObQz0MvqeAvcVC8B-2-197" target="X_ObQz0MvqeAvcVC8B-2-217" edge="1">
          <mxGeometry width="50" height="50" relative="1" as="geometry">
            <mxPoint x="274" y="127" as="sourcePoint" />
            <mxPoint x="200" y="-50" as="targetPoint" />
          </mxGeometry>
        </mxCell>
        <mxCell id="X_ObQz0MvqeAvcVC8B-2-221" value="" style="endArrow=none;html=1;rounded=0;entryX=0.5;entryY=1;entryDx=0;entryDy=0;exitX=0.5;exitY=0;exitDx=0;exitDy=0;" parent="1" source="X_ObQz0MvqeAvcVC8B-2-197" target="X_ObQz0MvqeAvcVC8B-2-219" edge="1">
          <mxGeometry width="50" height="50" relative="1" as="geometry">
            <mxPoint x="340" y="-100" as="sourcePoint" />
            <mxPoint x="478" y="-220" as="targetPoint" />
          </mxGeometry>
        </mxCell>
        <mxCell id="X_ObQz0MvqeAvcVC8B-2-222" value="" style="endArrow=none;html=1;rounded=0;entryX=0.5;entryY=1;entryDx=0;entryDy=0;exitX=0.5;exitY=0;exitDx=0;exitDy=0;" parent="1" source="X_ObQz0MvqeAvcVC8B-2-197" target="X_ObQz0MvqeAvcVC8B-2-218" edge="1">
          <mxGeometry width="50" height="50" relative="1" as="geometry">
            <mxPoint x="348" y="-90" as="sourcePoint" />
            <mxPoint x="361" y="-220" as="targetPoint" />
          </mxGeometry>
        </mxCell>
        <mxCell id="M4s5TThnSfctJDCdHLJB-1" value="&lt;u&gt;emp_no&lt;/u&gt;" style="ellipse;whiteSpace=wrap;html=1;" parent="1" vertex="1">
          <mxGeometry x="790" y="340" width="67.5" height="40" as="geometry" />
        </mxCell>
        <mxCell id="M4s5TThnSfctJDCdHLJB-2" value="YN_manager" style="ellipse;whiteSpace=wrap;html=1;" parent="1" vertex="1">
          <mxGeometry x="876" y="350" width="90" height="40" as="geometry" />
        </mxCell>
        <mxCell id="M4s5TThnSfctJDCdHLJB-5" value="" style="endArrow=none;html=1;rounded=0;exitX=0.5;exitY=1;exitDx=0;exitDy=0;entryX=0.5;entryY=0;entryDx=0;entryDy=0;" parent="1" source="X_ObQz0MvqeAvcVC8B-2-130" target="M4s5TThnSfctJDCdHLJB-1" edge="1">
          <mxGeometry relative="1" as="geometry">
            <mxPoint x="740" y="380" as="sourcePoint" />
            <mxPoint x="748" y="420" as="targetPoint" />
          </mxGeometry>
        </mxCell>
        <mxCell id="M4s5TThnSfctJDCdHLJB-6" value="" style="endArrow=none;html=1;rounded=0;exitX=0.5;exitY=1;exitDx=0;exitDy=0;entryX=0.5;entryY=0;entryDx=0;entryDy=0;" parent="1" source="X_ObQz0MvqeAvcVC8B-2-130" target="M4s5TThnSfctJDCdHLJB-2" edge="1">
          <mxGeometry relative="1" as="geometry">
            <mxPoint x="818" y="294" as="sourcePoint" />
            <mxPoint x="834" y="350" as="targetPoint" />
          </mxGeometry>
        </mxCell>
        <mxCell id="M4s5TThnSfctJDCdHLJB-7" value="" style="endArrow=none;html=1;rounded=0;exitX=0.5;exitY=1;exitDx=0;exitDy=0;entryX=0;entryY=0.5;entryDx=0;entryDy=0;" parent="1" source="X_ObQz0MvqeAvcVC8B-2-130" target="M4s5TThnSfctJDCdHLJB-8" edge="1">
          <mxGeometry relative="1" as="geometry">
            <mxPoint x="818" y="294" as="sourcePoint" />
            <mxPoint x="920" y="310" as="targetPoint" />
          </mxGeometry>
        </mxCell>
        <mxCell id="M4s5TThnSfctJDCdHLJB-8" value="dept_nm" style="ellipse;shape=doubleEllipse;margin=3;whiteSpace=wrap;html=1;align=center;" parent="1" vertex="1">
          <mxGeometry x="938" y="300" width="100" height="40" as="geometry" />
        </mxCell>
        <mxCell id="M4s5TThnSfctJDCdHLJB-9" value="&lt;u&gt;txn_seqs&lt;/u&gt;" style="ellipse;whiteSpace=wrap;html=1;" parent="1" vertex="1">
          <mxGeometry x="9.5" y="112.5" width="85" height="40" as="geometry" />
        </mxCell>
        <mxCell id="M4s5TThnSfctJDCdHLJB-10" value="" style="endArrow=none;html=1;rounded=0;exitX=0.5;exitY=1;exitDx=0;exitDy=0;" parent="1" source="M4s5TThnSfctJDCdHLJB-9" edge="1">
          <mxGeometry width="50" height="50" relative="1" as="geometry">
            <mxPoint x="35" y="190" as="sourcePoint" />
            <mxPoint x="80" y="260" as="targetPoint" />
          </mxGeometry>
        </mxCell>
        <mxCell id="M4s5TThnSfctJDCdHLJB-11" value="loan_name" style="ellipse;shape=doubleEllipse;margin=3;whiteSpace=wrap;html=1;align=center;" parent="1" vertex="1">
          <mxGeometry x="-75" y="147" width="100" height="40" as="geometry" />
        </mxCell>
        <mxCell id="Te1LY6DuS1yLmi-bnfxk-1" value="CUST_ID_SEC" style="ellipse;whiteSpace=wrap;html=1;" vertex="1" parent="1">
          <mxGeometry x="500" y="415" width="100.25" height="45" as="geometry" />
        </mxCell>
        <mxCell id="Te1LY6DuS1yLmi-bnfxk-2" value="" style="endArrow=none;html=1;rounded=0;exitX=1;exitY=0.5;exitDx=0;exitDy=0;entryX=0;entryY=0.5;entryDx=0;entryDy=0;" edge="1" parent="1" source="Te1LY6DuS1yLmi-bnfxk-1" target="X_ObQz0MvqeAvcVC8B-2-152">
          <mxGeometry relative="1" as="geometry">
            <mxPoint x="642" y="388" as="sourcePoint" />
            <mxPoint x="748" y="420" as="targetPoint" />
          </mxGeometry>
        </mxCell>
        <mxCell id="Te1LY6DuS1yLmi-bnfxk-3" value="BRANCH_CD" style="ellipse;whiteSpace=wrap;html=1;" vertex="1" parent="1">
          <mxGeometry x="510" y="475" width="100.25" height="45" as="geometry" />
        </mxCell>
        <mxCell id="Te1LY6DuS1yLmi-bnfxk-4" value="" style="endArrow=none;html=1;rounded=0;exitX=1;exitY=0;exitDx=0;exitDy=0;entryX=0;entryY=0.5;entryDx=0;entryDy=0;" edge="1" parent="1" source="Te1LY6DuS1yLmi-bnfxk-3" target="X_ObQz0MvqeAvcVC8B-2-152">
          <mxGeometry relative="1" as="geometry">
            <mxPoint x="610" y="448" as="sourcePoint" />
            <mxPoint x="695" y="443" as="targetPoint" />
          </mxGeometry>
        </mxCell>
        <mxCell id="Te1LY6DuS1yLmi-bnfxk-6" value="FLG_CUST_LVL" style="ellipse;whiteSpace=wrap;html=1;" vertex="1" parent="1">
          <mxGeometry x="938" y="765" width="115" height="30" as="geometry" />
        </mxCell>
        <mxCell id="Te1LY6DuS1yLmi-bnfxk-7" value="" style="endArrow=none;html=1;rounded=0;exitX=0;exitY=0.5;exitDx=0;exitDy=0;entryX=1;entryY=0.5;entryDx=0;entryDy=0;" edge="1" parent="1" source="Te1LY6DuS1yLmi-bnfxk-6" target="X_ObQz0MvqeAvcVC8B-2-4">
          <mxGeometry width="50" height="50" relative="1" as="geometry">
            <mxPoint x="960" y="730" as="sourcePoint" />
            <mxPoint x="800" y="670" as="targetPoint" />
          </mxGeometry>
        </mxCell>
        <mxCell id="Te1LY6DuS1yLmi-bnfxk-9" value="" style="endArrow=none;html=1;rounded=0;entryX=0.5;entryY=1;entryDx=0;entryDy=0;exitX=0.5;exitY=0;exitDx=0;exitDy=0;" edge="1" parent="1" source="X_ObQz0MvqeAvcVC8B-2-26" target="X_ObQz0MvqeAvcVC8B-2-24">
          <mxGeometry width="50" height="50" relative="1" as="geometry">
            <mxPoint x="692" y="849" as="sourcePoint" />
            <mxPoint x="748" y="766" as="targetPoint" />
          </mxGeometry>
        </mxCell>
        <mxCell id="Te1LY6DuS1yLmi-bnfxk-10" value="U" style="text;html=1;strokeColor=none;fillColor=none;align=center;verticalAlign=middle;whiteSpace=wrap;rounded=0;rotation=-45;" vertex="1" parent="1">
          <mxGeometry x="765" y="778.75" width="50" height="51" as="geometry" />
        </mxCell>
        <mxCell id="Te1LY6DuS1yLmi-bnfxk-12" value="" style="endArrow=none;html=1;rounded=0;entryX=0.5;entryY=1;entryDx=0;entryDy=0;exitX=0.5;exitY=0;exitDx=0;exitDy=0;" edge="1" parent="1" source="Te1LY6DuS1yLmi-bnfxk-16" target="X_ObQz0MvqeAvcVC8B-2-25">
          <mxGeometry width="50" height="50" relative="1" as="geometry">
            <mxPoint x="715.125" y="1080" as="sourcePoint" />
            <mxPoint x="692" y="879" as="targetPoint" />
          </mxGeometry>
        </mxCell>
        <mxCell id="Te1LY6DuS1yLmi-bnfxk-14" value="BRANCH_CD" style="ellipse;shape=doubleEllipse;margin=3;whiteSpace=wrap;html=1;align=center;" vertex="1" parent="1">
          <mxGeometry x="942.5" y="1030" width="100" height="40" as="geometry" />
        </mxCell>
        <mxCell id="Te1LY6DuS1yLmi-bnfxk-15" value="" style="endArrow=none;html=1;rounded=0;entryX=0.5;entryY=1;entryDx=0;entryDy=0;exitX=0.5;exitY=0;exitDx=0;exitDy=0;" edge="1" parent="1" source="Te1LY6DuS1yLmi-bnfxk-14" target="X_ObQz0MvqeAvcVC8B-2-26">
          <mxGeometry width="50" height="50" relative="1" as="geometry">
            <mxPoint x="908" y="1014" as="sourcePoint" />
            <mxPoint x="838" y="879" as="targetPoint" />
            <Array as="points" />
          </mxGeometry>
        </mxCell>
        <mxCell id="Te1LY6DuS1yLmi-bnfxk-16" value="BRANCH_CD" style="ellipse;shape=doubleEllipse;margin=3;whiteSpace=wrap;html=1;align=center;" vertex="1" parent="1">
          <mxGeometry x="677.25" y="1090" width="100" height="40" as="geometry" />
        </mxCell>
      </root>
    </mxGraphModel>
  </diagram>
</mxfile>
